<svg width="35" height="34" viewBox="0 0 35 34" fill="none" xmlns="http://www.w3.org/2000/svg">
<path id="Vector" d="M19.3024 10.6297L19.2292 11.7089L20.0987 11.0655C22.7852 9.07783 26.4861 8.70465 29.6079 10.4136L29.848 9.97504L29.6079 10.4136C33.8914 12.7585 35.4628 18.1317 33.1187 22.4149C30.1753 27.7921 23.8094 30.4482 18.0449 31.745C15.1793 32.3897 12.4996 32.6901 10.5351 32.829C9.55349 32.8984 8.752 32.9275 8.19711 32.9392C7.94741 32.9444 7.74773 32.9462 7.60413 32.9465C7.52703 32.8254 7.4209 32.6562 7.29076 32.4431C7.00157 31.9693 6.59409 31.2786 6.12357 30.4143C5.18196 28.6846 3.99081 26.2654 2.98955 23.5042C0.975387 17.9496 -0.217892 11.1559 2.72536 5.77869C5.07027 1.49517 10.4435 -0.0766394 14.727 2.26824L14.727 2.26825C17.8488 3.97685 19.5289 7.29545 19.3024 10.6297Z" stroke="#5E5E5E"/>
</svg>
