<svg width="244" height="563" viewBox="0 0 244 563" fill="none" xmlns="http://www.w3.org/2000/svg">
<path d="M-39.5744 561.854C-76.3598 561.577 -112.73 554.057 -146.609 539.724C-180.489 525.39 -211.213 504.524 -237.028 478.317C-262.843 452.11 -283.243 421.074 -297.064 386.983C-310.885 352.891 -317.856 316.412 -317.578 279.626C-317.301 242.841 -309.781 206.47 -295.448 172.591C-281.114 138.712 -260.248 107.988 -234.041 82.1729C-207.834 56.3578 -176.798 35.9575 -142.707 22.1366C-108.615 8.31567 -72.1356 1.3449 -35.3502 1.62226C1.43514 1.89962 37.8057 9.41969 71.6848 23.7531C105.564 38.0865 136.288 58.9525 162.103 85.1598C187.918 111.367 208.319 142.402 222.139 176.494C235.96 210.585 242.931 247.065 242.654 283.85C242.376 320.636 234.856 357.006 220.523 390.885C206.19 424.765 185.323 455.489 159.116 481.304C132.909 507.119 101.874 527.519 67.7821 541.34C33.6907 555.161 -2.78907 562.132 -39.5744 561.854L-39.5744 561.854Z" stroke="#CBD5E1" stroke-width="2"/>
</svg>
