<svg width="130" height="159" viewBox="0 0 130 159" fill="none" xmlns="http://www.w3.org/2000/svg">
<g id="Group 4609">
<path id="Vector" d="M92.3402 92.3165C86.2457 94.5351 82.3081 100.051 81.7987 106.115C77.5092 101.798 70.947 100.106 64.853 102.325C56.493 105.368 52.1837 114.613 55.2272 122.973C62.729 143.576 97.1204 148.196 97.1204 148.196C97.1204 148.196 120.489 122.545 112.988 101.941C109.944 93.5828 100.7 89.273 92.3402 92.3165Z" fill="#E4003B"/>
<line id="Line 14" x1="50.2929" y1="86.7071" x2="2.29289" y2="38.7071" stroke="#5E5E5E" stroke-width="2"/>
<line id="Line 15" x1="89.0001" y1="75.9867" x2="90.0001" y2="0.986666" stroke="#5E5E5E" stroke-width="2"/>
<line id="Line 16" x1="68.0797" y1="76.3911" x2="51.0797" y2="36.3911" stroke="#5E5E5E" stroke-width="2"/>
<line id="Line 17" x1="111.111" y1="80.542" x2="128.111" y2="47.542" stroke="#5E5E5E" stroke-width="2"/>
<line id="Line 18" x1="38.6119" y1="102.922" x2="0.611941" y2="86.9216" stroke="#5E5E5E" stroke-width="2"/>
<circle id="Ellipse 112" cx="116.5" cy="34.5" r="6" stroke="#5E5E5E"/>
<circle id="Ellipse 114" cx="32" cy="43" r="4.5" stroke="#5E5E5E"/>
<circle id="Ellipse 115" cx="14.5" cy="145.5" r="11" stroke="#5E5E5E"/>
</g>
</svg>
